HIERARCHY
ROOT ui
{
	 OFFSET 0 0 0
	 CHANNELS 3 XPosition YPosition Z Position
	 EndSite
	 {
	 OFFSET 0 -1 0
	 }
}
ROOT li
{
	 OFFSET 0 0 0
	 CHANNELS 3 XPosition YPosition Z Position
	 EndSite
	 {
	 OFFSET 0 -1 0
	 }
}
ROOT ul
{
	 OFFSET 0 0 0
	 CHANNELS 3 XPosition YPosition Z Position
	 EndSite
	 {
	 OFFSET 0 -1 0
	 }
}
ROOT ll
{
	 OFFSET 0 0 0
	 CHANNELS 3 XPosition YPosition Z Position
	 EndSite
	 {
	 OFFSET 0 -1 0
	 }
}
ROOT tt
{
	 OFFSET 0 0 0
	 CHANNELS 3 XPosition YPosition Z Position
	 EndSite
	 {
	 OFFSET 0 -1 0
	 }
}
ROOT tb
{
	 OFFSET 0 0 0
	 CHANNELS 3 XPosition YPosition Z Position
	 EndSite
	 {
	 OFFSET 0 -1 0
	 }
}
ROOT td
{
	 OFFSET 0 0 0
	 CHANNELS 3 XPosition YPosition Z Position
	 EndSite
	 {
	 OFFSET 0 -1 0
	 }
}
ROOT v
{
	 OFFSET 0 0 0
	 CHANNELS 3 XPosition YPosition Z Position
	 EndSite
	 {
	 OFFSET 0 -1 0
	 }
}
ROOT bn
{
	 OFFSET 0 0 0
	 CHANNELS 3 XPosition YPosition Z Position
	 EndSite
	 {
	 OFFSET 0 -1 0
	 }
}
MOTION
Frames: 24
Frame Time: 0.002
-8.778520226478577E-4	3.393329977989197E-4	0		0.44090335083007814	-2.396032470703125	0		-1.0554166259765625	0.03539548110961914	0		-0.8454703979492187	-2.5158134765625	0		1.4559649658203124	-0.5750726928710937	0		3.078221435546875	0.08872928619384765	0		4.451400390625	0.19694023132324218	0		5.58243896484375	0.13349746704101562	0		-0.20333320617675782	5.89995947265625	0		
-0.0056009402275085446	0.0041954731941223145	0		0.4410187072753906	-2.396282470703125	0		-1.055211669921875	0.03520063400268555	0		-0.8104014282226563	-2.5186494140625	0		1.4610379638671875	-0.5814496459960937	0		3.084300537109375	0.08127462005615234	0		4.451611328125	0.19654240417480467	0		5.592609375	0.13087727355957032	0		-0.20291207885742188	5.8997333984375	0		
-0.005420731067657471	0.0039767839908599854	0		0.4499690246582031	-2.4046787109375	0		-1.123091796875	0.03225234603881836	0		-0.8791704711914062	-2.51058984375	0		1.4701419677734375	-0.5848819580078125	0		3.084864501953125	0.10194519805908203	0		4.45665234375	0.18807960510253907	0		5.5869765625	0.14057139587402342	0		-0.18834812927246095	5.909265625	0		
-3.4133899211883544E-4	-3.1389400362968444E-4	0		0.4541169128417969	-2.400967041015625	0		-1.0467506103515625	0.041704948425292966	0		-0.7932938842773437	-2.5223232421875	0		1.433373046875	-0.579458251953125	0		3.08949267578125	0.07255984497070313	0		4.45195703125	0.19582597351074219	0		5.5912783203125	0.14811810302734374	0		-0.18800642395019532	5.9090712890625	0		
-0.005144978046417236	0.0035966570377349853	0		0.44328176879882814	-2.394960693359375	0		-1.0506806640625	0.03862849044799805	0		-0.8040779418945313	-2.513281494140625	0		1.4644921875	-0.579243408203125	0		3.09897998046875	0.09212430572509765	0		4.46408349609375	0.195300048828125	0		5.59625927734375	0.13968820190429687	0		-0.18675065612792968	5.90687890625	0		
-1.2779699265956878E-4	-6.503900289535523E-4	0		0.46723583984375	-2.399565185546875	0		-1.0546610107421874	0.03457157897949219	0		-0.8101582641601562	-2.519307861328125	0		1.45662451171875	-0.57629150390625	0		3.084856689453125	0.080147216796875	0		4.45218115234375	0.1952504119873047	0		5.58735498046875	0.13955557250976564	0		-0.2016554718017578	5.89900146484375	0		
-0.004996387958526611	0.0033082690238952638	0		0.4123070678710937	-2.3957041015625	0		-1.054602783203125	0.03446177673339844	0		-0.8111897583007812	-2.521404296875	0		1.45359765625	-0.5803984985351562	0		3.079044677734375	0.08705899810791015	0		4.4522431640625	0.19502525329589843	0		5.58741552734375	0.139306640625	0		-0.18729417419433594	5.90861669921875	0		
-0.004972434997558593	0.0032026519775390627	0		0.4501204833984375	-2.405509033203125	0		-1.1167322998046876	0.02650721549987793	0		-0.8342769165039062	-2.525075927734375	0		1.4274884033203126	-0.5870524291992187	0		3.077906005859375	0.07792190551757812	0		4.446125	0.18695648193359374	0		5.5974033203125	0.13692585754394532	0		-0.17102871704101563	5.916220703125	0		
0.007052563190460205	0.004904366016387939	0		0.429249755859375	-2.3962109375	0		-1.108614990234375	0.03329463958740234	0		-0.8292083129882812	-2.51923681640625	0		1.475628173828125	-0.5790269775390625	0		3.103258544921875	0.09734576416015625	0		4.46535205078125	0.19947457885742187	0		5.59570654296875	0.1538130645751953	0		-0.1719482421875	5.917162109375	0		
-9.839200228452682E-5	-0.0010185600519180297	0		0.4712003173828125	-2.396033935546875	0		-1.054629638671875	0.0342637939453125	0		-0.8431944580078125	-2.515027099609375	0		1.4586754150390624	-0.5737801513671875	0		3.052896240234375	0.08018733978271485	0		4.4522216796875	0.19462728881835936	0		5.58739208984375	0.13886744689941405	0		-0.20032496643066405	5.896626953125	0		
-0.005099423885345459	0.0030465400218963623	0		0.4141453552246094	-2.39401904296875	0		-1.0487969970703126	0.02913270950317383	0		-0.8103562622070313	-2.519652587890625	0		1.453471435546875	-0.5807178955078125	0		3.0949423828125	0.08638274383544922	0		4.4521474609375	0.19458718872070313	0		5.5931337890625	0.1287156524658203	0		-0.20038082885742187	5.89660205078125	0		
-2.805370092391968E-4	-0.001044834017753601	0		0.4747377014160156	-2.4111318359375	0		-1.1228734130859375	0.03148382568359375	0		-0.8474548950195312	-2.5189775390625	0		1.4134080810546874	-0.5779862670898438	0		3.084708740234375	0.07956892395019531	0		4.45689306640625	0.18650054931640625	0		5.58721044921875	0.13882814025878906	0		-0.20049334716796874	5.89660107421875	0		
-4.190720021724701E-4	-0.0010218340158462524	0		0.4237473449707031	-2.403175537109375	0		-1.0421353759765626	0.024021909713745116	0		-0.7997537231445313	-2.52883447265625	0		1.46708056640625	-0.5889417114257812	0		3.080863037109375	0.09567739868164063	0		4.45190087890625	0.1946353302001953	0		5.597033203125	0.13669593811035155	0		-0.18648019409179686	5.90636572265625	0		
-0.005513868808746338	0.0031140220165252687	0		0.4536309814453125	-2.401675048828125	0		-1.10914697265625	0.03328072738647461	0		-0.8667066650390625	-2.517573974609375	0		1.43306884765625	-0.5802640380859375	0		3.068403076171875	0.07997113800048829	0		4.45173046875	0.1947190399169922	0		5.59686328125	0.13678956604003906	0		-0.20088037109375	5.89666650390625	0		
-7.849400043487549E-4	-9.108099937438965E-4	0		0.4514269714355469	-2.40356689453125	0		-1.0553170166015624	0.034346847534179686	0		-0.8000667724609375	-2.528740234375	0		1.46672705078125	-0.588800048828125	0		3.105454345703125	0.09339667510986328	0		4.45153076171875	0.1948393096923828	0		5.58670263671875	0.13910604858398437	0		-0.1869694061279297	5.90647265625	0		
-0.001008234977722168	-8.259639739990234E-4	0		0.46631149291992186	-2.399749267578125	0		-1.049633056640625	0.02930668830871582	0		-0.8110847778320313	-2.51946875	0		1.4526611328125	-0.5804383544921875	0		3.0781064453125	0.08702348327636719	0		4.45130419921875	0.19499337768554686	0		5.5954755859375	0.13911360168457032	0		-0.20146461486816405	5.8968115234375	0		
-0.006181031227111816	0.0033665781021118162	0		0.4739078369140625	-2.410782470703125	0		-1.0557880859375	0.034497783660888674	0		-0.8143568725585938	-2.523326171875	0		1.457315185546875	-0.5863992919921875	0		3.093855712890625	0.08689128112792968	0		4.45590771484375	0.18708848571777345	0		5.59618994140625	0.1373018798828125	0		-0.20182080078125	5.89691015625	0		
-0.001520930051803589	-6.063950061798096E-4	0		0.4228289794921875	-2.402727783203125	0		-1.11820849609375	0.02672267532348633	0		-0.86068896484375	-2.5293876953125	0		1.422994384765625	-0.5896312255859375	0		3.072336181640625	0.07345938873291015	0		4.45563720703125	0.18730113220214845	0		5.59592041015625	0.1375388946533203	0		-0.18705160522460937	5.90574853515625	0		
0.0053053488731384275	0.005396060943603516	0		0.4526358642578125	-2.401132568359375	0		-1.0353953857421876	0.03131711959838867	0		-0.7947759399414063	-2.522478515625	0		1.4718822021484375	-0.5813587646484375	0		3.092522216796875	0.09929535675048828	0		4.458732421875	0.20847984313964843	0		5.59394482421875	0.15483627319335938	0		-0.18747373962402344	5.905875	0		
-0.0020951581001281737	-3.3445098996162415E-4	0		0.4503692932128906	-2.402943115234375	0		-1.1246923828125	0.03204730987548828	0		-0.8360510864257813	-2.524613037109375	0		1.465478515625	-0.5880693969726563	0		3.061014404296875	0.08808116912841797	0		4.46219775390625	0.19566580200195313	0		5.600193359375	0.1299990692138672	0		-0.2030797119140625	5.89728515625	0		
-0.00239440393447876	-1.8575699627399446E-4	0		0.473005126953125	-2.41019775390625	0		-1.05693115234375	0.03493220901489258	0		-0.8132125244140626	-2.52090478515625	0		1.4513426513671874	-0.579628173828125	0		3.073601806640625	0.08207905578613281	0		4.45474951171875	0.18806483459472656	0		5.58507421875	0.14057127380371093	0		-0.20354034423828124	5.89742822265625	0		
-0.005767724990844727	-0.0039780459403991695	0		0.41003573608398436	-2.3948935546875	0		-1.11938623046875	0.027178442001342774	0		-0.8154783325195313	-2.522738525390625	0		1.4618387451171875	-0.5916312255859375	0		3.09416796875	0.07494026184082031	0		4.44958837890625	0.19643325805664064	0		5.593767578125	0.14071974182128907	0		-0.20400914001464843	5.89757568359375	0		
-0.0029943060874938966	1.2070199847221374E-4	0		0.4476375732421875	-2.4044130859375	0		-1.0447158203125	0.02494508361816406	0		-0.87471240234375	-2.5225419921875	0		1.4215999755859374	-0.5887129516601562	0		3.078267333984375	0.09746878051757812	0		4.443140625	0.1888251190185547	0		5.5985546875	0.14594375610351562	0		-0.20349600219726563	5.89670556640625	0		
-0.0032837109565734862	2.725349962711334E-4	0		0.42454736328125	-2.39683447265625	0		-1.1118507080078126	0.0342741813659668	0		-0.7999775390625	-2.525767822265625	0		1.4674102783203125	-0.5843506469726563	0		3.097665283203125	0.08035125732421874	0		4.45384375	0.18890643310546876	0		5.6024404296875	0.15618295288085937	0		-0.1897769317626953	5.90659716796875	0		
